{"title":"The Call - 2013 - CAM - XVID - BJ20071","uid":8289008,"size":1044685350,"categoryP":"video","categoryS":"movies","magnet":"?xt=urn:btih:c63971d47f4411213921cf639e2e307c7ece1d85&amp;dn=The+Call+-+2013+-+CAM+-+XVID+-+BJ20071&amp;tr=udp%3A%2F%2Ftracker.openbittorrent.com%3A80&amp;tr=udp%3A%2F%2Fopen.demonii.com%3A1337&amp;tr=udp%3A%2F%2Ftracker.coppersurfer.tk%3A6969&amp;tr=udp%3A%2F%2Fexodus.desync.com%3A6969","seeders":2,"leechers":0,"uploader":"BJ20071","files":1,"time":1363998151,"description":"Runtime ..........:1:27\nIMDb URL .........:http://www.imdb.com/title/tt1911644/\nLanguage .........:English\nFile Size ........:996MB\nRelease Date ......2013\nFile Type .........Single AVI\nGenre ......... Horror/Thriller\n\n\nVideo\nFormat : MPEG-4 Visual\nCodec ID : XVID\nDuration : 1h 28mn\nBit rate : 1380kbps\nWidth : 680pixels\nHeight : 384pixels\nDisplay aspect ratio : 16:9\nFrame rate : 29.000fps\nColor space : YUV\nChroma subsampling : 4:2:0\nBit depth : 8 bits\nScan type : Progressive\nBits/(Pixel*Frame) : 0.234\nStream size : 892 MiB (86%)\nWriting library : XviD 1.2.1 (UTC 2008-12-04)\n\nAudio\nID : 1\nFormat : AC3\nFormat/Info : MPEG\nMode extension : CM (complete main)\nCodec ID : 2000\nDuration : 1h 28mn\nBit rate mode : Constant\nBit rate : 128kbps\nChannel(s) : 2channels\nChannel positions : Front: L R,\nSampling rate : 48.0 KHz\nBit depth : 16 bits\nStream size : 302 MiB\nAlignment : Aligned on interleaves\nInterleave, duration : 42 ms (1.00 video frame)\nInterleave, preload duration : 512 ms\n\nSYNOPSIS\nA veteran 911 operator must confront a killer from the past to\nsave a young girl's life.\n","torrent":{"xt":"urn:btih:c63971d47f4411213921cf639e2e307c7ece1d85","amp;dn":"The+Call+-+2013+-+CAM+-+XVID+-+BJ20071","amp;tr":["udp%3A%2F%2Ftracker.openbittorrent.com%3A80","udp%3A%2F%2Fopen.demonii.com%3A1337","udp%3A%2F%2Ftracker.coppersurfer.tk%3A6969","udp%3A%2F%2Fexodus.desync.com%3A6969"],"infoHash":"c63971d47f4411213921cf639e2e307c7ece1d85","infoHashBuffer":{"type":"Buffer","data":[198,57,113,212,127,68,17,33,57,33,207,99,158,46,48,124,126,206,29,133]},"announce":[],"urlList":[]}}